<svg width="541" height="113" viewBox="0 0 541 113" fill="none" xmlns="http://www.w3.org/2000/svg">
<path d="M16.28 25.96C17.8567 26.3267 19.1217 27.1517 20.075 28.435C21.065 29.6817 21.56 31.295 21.56 33.275V43.505C21.56 46.255 20.68 48.4367 18.92 50.05C17.1967 51.6634 14.8133 52.47 11.77 52.47H0.109999V0.495029H11.825C14.6117 0.495029 16.7933 1.22836 18.37 2.69503C19.9833 4.1617 20.79 6.10503 20.79 8.52503V18.48C20.79 22.4034 19.2867 24.7684 16.28 25.575V25.96ZM10.725 6.82003H7.425V22.825H10.725C11.6417 22.825 12.3567 22.5684 12.87 22.055C13.42 21.5417 13.695 20.79 13.695 19.8V9.84503C13.695 7.82836 12.705 6.82003 10.725 6.82003ZM10.45 28.875H7.425V46.145H10.395C12.925 46.145 14.19 44.9167 14.19 42.46V32.395C14.19 30.0484 12.9433 28.875 10.45 28.875ZM36.2811 0.055028C39.7278 0.055028 42.3678 1.04503 44.2011 3.02503C46.0711 5.00503 47.0061 7.7917 47.0061 11.385V41.58C47.0061 45.21 46.0711 48.015 44.2011 49.995C42.3311 51.975 39.6911 52.965 36.2811 52.965C32.8711 52.965 30.2494 51.975 28.4161 49.995C26.5828 48.015 25.6661 45.21 25.6661 41.58V11.385C25.6661 7.7917 26.5828 5.00503 28.4161 3.02503C30.2494 1.04503 32.8711 0.055028 36.2811 0.055028ZM39.6361 42.68V10.285C39.6361 9.1117 39.3428 8.1767 38.7561 7.48003C38.1694 6.78336 37.3811 6.43503 36.3911 6.43503C35.4011 6.43503 34.5944 6.78336 33.9711 7.48003C33.3478 8.1767 33.0361 9.1117 33.0361 10.285V42.68C33.0361 43.8534 33.3478 44.8067 33.9711 45.54C34.5944 46.2367 35.3828 46.585 36.3361 46.585C37.3261 46.585 38.1144 46.2367 38.7011 45.54C39.3244 44.8067 39.6361 43.8534 39.6361 42.68ZM74.3669 52.47H67.1069L64.1919 33.275H59.8469V52.47H52.5319V0.495029H63.1469C66.4469 0.495029 68.9952 1.37503 70.7919 3.13503C72.6252 4.85836 73.5419 7.4067 73.5419 10.78V22.33C73.5419 25.63 72.5152 28.2334 70.4619 30.14L74.3669 52.47ZM59.9019 27.06H62.0469C64.7602 27.06 66.1169 25.5567 66.1169 22.55V11.275C66.1169 8.30503 64.7602 6.82003 62.0469 6.82003H59.9019V27.06ZM93.7527 29.92L93.2577 15.015V0.495029H100.078V52.47H92.9827L85.8327 20.35H85.3927L85.7777 34.54V52.47H78.9577V0.495029H86.8227L93.3127 29.92H93.7527ZM114.783 0.495029H122.098V52.47H114.783V0.495029ZM142.844 29.92L142.349 15.015V0.495029H149.169V52.47H142.074L134.924 20.35H134.484L134.869 34.54V52.47H128.049V0.495029H135.914L142.404 29.92H142.844ZM168.605 0.330028H173.28V52.47H166.075V11.715H161.29V7.37003C163.82 7.11336 165.58 6.39836 166.57 5.22503C167.56 4.01503 168.238 2.38336 168.605 0.330028ZM182.709 24.64C179.739 23.65 178.254 21.2484 178.254 17.435V8.47003C178.254 5.94003 179.115 3.90503 180.839 2.36503C182.562 0.825028 184.964 0.055028 188.044 0.055028C191.16 0.055028 193.58 0.825028 195.304 2.36503C197.027 3.90503 197.889 5.94003 197.889 8.47003V17.435C197.889 21.285 196.33 23.705 193.214 24.695V24.97C196.587 25.8134 198.274 28.27 198.274 32.34V43.89C198.274 46.7867 197.357 49.0234 195.524 50.6C193.727 52.14 191.234 52.91 188.044 52.91C184.854 52.91 182.342 52.14 180.509 50.6C178.712 49.0234 177.814 46.7867 177.814 43.89V32.34C177.814 28.3434 179.445 25.8867 182.709 24.97V24.64ZM190.794 18.81V9.46003C190.794 7.22336 189.877 6.10503 188.044 6.10503C186.247 6.10503 185.349 7.22336 185.349 9.46003V18.81C185.349 21.12 186.247 22.275 188.044 22.275C189.877 22.275 190.794 21.12 190.794 18.81ZM191.014 43.285V31.075C191.014 28.6917 190.024 27.5 188.044 27.5C187.127 27.5 186.394 27.83 185.844 28.49C185.33 29.1134 185.074 29.975 185.074 31.075V43.285C185.074 44.3484 185.33 45.21 185.844 45.87C186.357 46.4934 187.09 46.805 188.044 46.805C190.024 46.805 191.014 45.6317 191.014 43.285ZM210.232 25.96C211.626 23.5034 213.606 22.275 216.172 22.275C218.042 22.275 219.582 22.9717 220.792 24.365C222.002 25.7584 222.607 27.7384 222.607 30.305V43.065C222.607 46.1817 221.727 48.6017 219.967 50.325C218.207 52.0484 215.769 52.91 212.652 52.91C209.462 52.91 207.006 52.0667 205.282 50.38C203.559 48.6934 202.697 46.1817 202.697 42.845V10.175C202.697 6.94836 203.559 4.45503 205.282 2.69503C207.042 0.935029 209.426 0.055028 212.432 0.055028C215.549 0.055028 217.951 0.861695 219.637 2.47503C221.361 4.08836 222.222 6.38003 222.222 9.35003V19.8H215.347V9.46003C215.347 7.26003 214.431 6.16003 212.597 6.16003C211.754 6.16003 211.076 6.43503 210.562 6.98503C210.086 7.49836 209.847 8.1767 209.847 9.02003V25.96H210.232ZM215.402 44V31.24C215.402 30.2867 215.127 29.535 214.577 28.985C214.064 28.3984 213.386 28.105 212.542 28.105C211.736 28.105 211.076 28.3984 210.562 28.985C210.086 29.5717 209.847 30.3234 209.847 31.24V43.505C209.847 45.705 210.782 46.805 212.652 46.805C213.422 46.805 214.064 46.5484 214.577 46.035C215.127 45.485 215.402 44.8067 215.402 44ZM239.831 26.95C238.437 29.4067 236.457 30.635 233.891 30.635C232.021 30.635 230.481 29.9384 229.271 28.545C228.061 27.1517 227.456 25.1717 227.456 22.605V9.84503C227.456 6.72836 228.336 4.30836 230.096 2.58503C231.856 0.861695 234.294 2.86698e-05 237.411 2.86698e-05C240.601 2.86698e-05 243.057 0.843362 244.781 2.53003C246.504 4.2167 247.366 6.72836 247.366 10.065V42.735C247.366 45.9617 246.486 48.455 244.726 50.215C243.002 51.975 240.637 52.855 237.631 52.855C234.514 52.855 232.094 52.0484 230.371 50.435C228.684 48.8217 227.841 46.53 227.841 43.56V33.11H234.716V43.45C234.716 45.65 235.632 46.75 237.466 46.75C238.309 46.75 238.969 46.4934 239.446 45.98C239.959 45.43 240.216 44.7334 240.216 43.89V26.95H239.831ZM234.661 8.91003V21.67C234.661 22.6234 234.917 23.3934 235.431 23.98C235.981 24.53 236.677 24.805 237.521 24.805C238.327 24.805 238.969 24.5117 239.446 23.925C239.959 23.3384 240.216 22.5867 240.216 21.67V9.40503C240.216 7.20503 239.281 6.10503 237.411 6.10503C236.641 6.10503 235.981 6.38003 235.431 6.93003C234.917 7.44336 234.661 8.10336 234.661 8.91003ZM260.519 44.055V52.47H253.149V44.055H260.519ZM291.549 25.96C293.125 26.3267 294.39 27.1517 295.344 28.435C296.334 29.6817 296.829 31.295 296.829 33.275V43.505C296.829 46.255 295.949 48.4367 294.189 50.05C292.465 51.6634 290.082 52.47 287.039 52.47H275.379V0.495029H287.094C289.88 0.495029 292.062 1.22836 293.639 2.69503C295.252 4.1617 296.059 6.10503 296.059 8.52503V18.48C296.059 22.4034 294.555 24.7684 291.549 25.575V25.96ZM285.994 6.82003H282.694V22.825H285.994C286.91 22.825 287.625 22.5684 288.139 22.055C288.689 21.5417 288.964 20.79 288.964 19.8V9.84503C288.964 7.82836 287.974 6.82003 285.994 6.82003ZM285.719 28.875H282.694V46.145H285.664C288.194 46.145 289.459 44.9167 289.459 42.46V32.395C289.459 30.0484 288.212 28.875 285.719 28.875ZM321.89 0.495029V43.505C321.89 46.585 320.991 48.9317 319.195 50.545C317.398 52.1584 314.85 52.965 311.55 52.965C308.286 52.965 305.756 52.1767 303.96 50.6C302.163 48.9867 301.265 46.6584 301.265 43.615V0.495029H308.58V43.01C308.58 44.22 308.855 45.1184 309.405 45.705C309.991 46.2917 310.725 46.585 311.605 46.585C313.621 46.585 314.63 45.3934 314.63 43.01V0.495029H321.89ZM327.8 0.495029H335.115V52.47H327.8V0.495029ZM348.382 46.145H357.347V52.47H341.067V0.495029H348.382V46.145ZM376.524 0.495029V6.82003H369.374V52.47H362.059V6.87503H354.909V0.495029H376.524ZM404.342 25.96C405.918 26.3267 407.183 27.1517 408.137 28.435C409.127 29.6817 409.622 31.295 409.622 33.275V43.505C409.622 46.255 408.742 48.4367 406.982 50.05C405.258 51.6634 402.875 52.47 399.832 52.47H388.172V0.495029H399.887C402.673 0.495029 404.855 1.22836 406.432 2.69503C408.045 4.1617 408.852 6.10503 408.852 8.52503V18.48C408.852 22.4034 407.348 24.7684 404.342 25.575V25.96ZM398.787 6.82003H395.487V22.825H398.787C399.703 22.825 400.418 22.5684 400.932 22.055C401.482 21.5417 401.757 20.79 401.757 19.8V9.84503C401.757 7.82836 400.767 6.82003 398.787 6.82003ZM398.512 28.875H395.487V46.145H398.457C400.987 46.145 402.252 44.9167 402.252 42.46V32.395C402.252 30.0484 401.005 28.875 398.512 28.875ZM423.812 23.815L425.132 16.885L428.047 0.495029L436.077 0.44003L427.057 37.785V52.47H419.742V37.62L410.777 0.44003L418.972 0.495029L421.942 16.885L423.262 23.815H423.812ZM461.699 48.95C460.673 51.6267 458.546 52.965 455.319 52.965C453.046 52.9284 451.194 52.0667 449.764 50.38C448.334 48.6934 447.619 46.3284 447.619 43.285V11.385C447.619 7.75503 448.536 4.96836 450.369 3.02503C452.239 1.04503 454.916 0.055028 458.399 0.055028C461.773 0.055028 464.339 0.916696 466.099 2.64003C467.896 4.36336 468.794 6.7467 468.794 9.79003V20.735H461.534V10.285C461.534 7.71836 460.453 6.43503 458.289 6.43503C457.336 6.43503 456.548 6.78336 455.924 7.48003C455.301 8.1767 454.989 9.1117 454.989 10.285V42.735C454.989 45.3017 456.071 46.585 458.234 46.585C459.188 46.585 459.976 46.2367 460.599 45.54C461.259 44.8434 461.589 43.9817 461.589 42.955V30.8H458.179V24.64H468.794V52.47H462.909L462.194 48.95H461.699ZM495.944 52.47H488.684L485.769 33.275H481.424V52.47H474.109V0.495029H484.724C488.024 0.495029 490.572 1.37503 492.369 3.13503C494.202 4.85836 495.119 7.4067 495.119 10.78V22.33C495.119 25.63 494.092 28.2334 492.039 30.14L495.944 52.47ZM481.479 27.06H483.624C486.337 27.06 487.694 25.5567 487.694 22.55V11.275C487.694 8.30503 486.337 6.82003 483.624 6.82003H481.479V27.06ZM500.535 0.495029H507.85V52.47H500.535V0.495029ZM532.446 0.495029V6.82003H525.296V52.47H517.981V6.87503H510.831V0.495029H532.446ZM540.514 44.055V52.47H533.144V44.055H540.514ZM20.625 60.495V103.505C20.625 106.585 19.7267 108.932 17.93 110.545C16.1333 112.158 13.585 112.965 10.285 112.965C7.02167 112.965 4.49167 112.177 2.695 110.6C0.898333 108.987 -5.51343e-07 106.658 -5.51343e-07 103.615V60.495H7.315V103.01C7.315 104.22 7.59 105.118 8.14 105.705C8.72667 106.292 9.46 106.585 10.34 106.585C12.3567 106.585 13.365 105.393 13.365 103.01V60.495H20.625ZM41.3308 89.92L40.8358 75.015V60.495H47.6558V112.47H40.5608L33.4108 80.35H32.9708L33.3558 94.54V112.47H26.5358V60.495H34.4008L40.8908 89.92H41.3308ZM75.4948 112.47H68.2348L65.3198 93.275H60.9748V112.47H53.6598V60.495H64.2748C67.5748 60.495 70.1231 61.375 71.9198 63.135C73.7531 64.8584 74.6698 67.4067 74.6698 70.78V82.33C74.6698 85.63 73.6431 88.2334 71.5898 90.14L75.4948 112.47ZM61.0298 87.06H63.1748C65.8881 87.06 67.2448 85.5567 67.2448 82.55V71.275C67.2448 68.305 65.8881 66.82 63.1748 66.82H61.0298V87.06ZM80.0856 60.495H87.4006V112.47H80.0856V60.495ZM107.212 60.44H114.912L108.147 112.47H97.2022L90.4922 60.495H98.1922L101.107 90.745L102.537 102.46H103.087L104.407 90.745L107.212 60.44ZM131.942 112.47L130.732 100.7L122.977 100.59L121.712 112.47H114.232L121.492 60.495H132.382L139.532 112.47H131.942ZM123.637 94.32H130.072L128.202 76.225L127.102 67.48H126.607L125.507 76.225L123.637 94.32ZM149.866 106.145H158.831V112.47H142.551V60.495H149.866V106.145ZM168.934 106.145H178.339V112.47H161.619V60.495H178.229V66.82H168.934V82.605H177.459V88.82H168.934V106.145ZM194.048 60.495C197.165 60.495 199.603 61.43 201.363 63.3C203.123 65.17 204.003 67.8467 204.003 71.33V101.635C204.003 105.118 203.123 107.795 201.363 109.665C199.603 111.535 197.165 112.47 194.048 112.47H183.103V60.495H194.048ZM196.633 102.35V70.56C196.633 69.3867 196.34 68.47 195.753 67.81C195.166 67.15 194.396 66.82 193.443 66.82H190.418V106.145H193.388C194.341 106.145 195.111 105.815 195.698 105.155C196.321 104.495 196.633 103.56 196.633 102.35ZM225.545 106.145H234.95V112.47H218.23V60.495H234.84V66.82H225.545V82.605H234.07V88.82H225.545V106.145ZM253.306 60.44H261.006L254.241 112.47H243.296L236.586 60.495H244.286L247.201 90.745L248.631 102.46H249.181L250.501 90.745L253.306 60.44ZM271.361 106.145H280.766V112.47H264.046V60.495H280.656V66.82H271.361V82.605H279.886V88.82H271.361V106.145ZM307.365 112.47H300.105L297.19 93.275H292.845V112.47H285.53V60.495H296.145C299.445 60.495 301.993 61.375 303.79 63.135C305.623 64.8584 306.54 67.4067 306.54 70.78V82.33C306.54 85.63 305.513 88.2334 303.46 90.14L307.365 112.47ZM292.9 87.06H295.045C297.758 87.06 299.115 85.5567 299.115 82.55V71.275C299.115 68.305 297.758 66.82 295.045 66.82H292.9V87.06ZM341.117 77.93H333.912V69.57C333.912 67.48 332.83 66.435 330.667 66.435C329.677 66.435 328.907 66.6917 328.357 67.205C327.844 67.7184 327.587 68.36 327.587 69.13V77.27C327.587 78.26 327.789 79.03 328.192 79.58C328.632 80.0934 329.365 80.5884 330.392 81.065L334.187 82.55C336.717 83.5767 338.587 84.7867 339.797 86.18C341.007 87.5734 341.612 89.6267 341.612 92.34V102.9C341.612 105.98 340.64 108.437 338.697 110.27C336.79 112.067 334.224 112.965 330.997 112.965C327.734 112.965 325.149 112.14 323.242 110.49C321.372 108.803 320.437 106.548 320.437 103.725V93.055H327.697V103.175C327.697 104.165 327.972 104.99 328.522 105.65C329.109 106.273 329.934 106.585 330.997 106.585C331.95 106.585 332.72 106.273 333.307 105.65C333.93 105.027 334.242 104.257 334.242 103.34V93.44C334.242 91.4967 333.142 90.0667 330.942 89.15L326.927 87.72C324.617 86.8767 322.93 85.7217 321.867 84.255C320.804 82.7884 320.272 80.79 320.272 78.26V69.405C320.272 66.7284 321.152 64.51 322.912 62.75C324.709 60.9534 327.33 60.055 330.777 60.055C334.114 60.055 336.662 60.8617 338.422 62.475C340.219 64.0517 341.117 66.1784 341.117 68.855V77.93ZM346.707 60.495H354.022V112.47H346.707V60.495ZM374.768 89.92L374.273 75.015V60.495H381.093V112.47H373.998L366.848 80.35H366.408L366.793 94.54V112.47H359.973V60.495H367.838L374.328 89.92H374.768ZM407.667 88.82V102.9C407.667 106.09 406.769 108.565 404.972 110.325C403.176 112.085 400.609 112.965 397.272 112.965C393.862 112.965 391.241 111.975 389.407 109.995C387.574 108.015 386.657 105.21 386.657 101.58V71.385C386.657 67.7917 387.574 65.005 389.407 63.025C391.241 61.045 393.862 60.055 397.272 60.055C400.609 60.055 403.176 60.9167 404.972 62.64C406.769 64.3634 407.667 66.82 407.667 70.01V82.605H400.462V70.285C400.462 69.1117 400.169 68.1767 399.582 67.48C399.032 66.7834 398.281 66.435 397.327 66.435C396.374 66.435 395.586 66.7834 394.962 67.48C394.339 68.1767 394.027 69.1117 394.027 70.285V102.68C394.027 103.853 394.339 104.807 394.962 105.54C395.586 106.237 396.374 106.585 397.327 106.585C398.281 106.585 399.032 106.237 399.582 105.54C400.169 104.807 400.462 103.853 400.462 102.68V88.82H407.667ZM420.301 106.145H429.706V112.47H412.986V60.495H429.596V66.82H420.301V82.605H428.826V88.82H420.301V106.145ZM442.115 104.055V112.47H434.745V104.055H442.115Z" fill="#203E51"/>
</svg>
